<?xml version="1.0" encoding="UTF-8" standalone="no"?>
<!-- Created with Inkscape (http://www.inkscape.org/) -->

<svg
   version="1.1"
   id="svg2"
   width="48.427258"
   height="29.257643"
   viewBox="0 0 48.427258 29.257643"
   xmlns="http://www.w3.org/2000/svg"
   xmlns:svg="http://www.w3.org/2000/svg">
  <defs
     id="defs6" />
  <g
     id="g8"
     transform="translate(-4.4081047,-15.12304)">
    <path
       id="path1400"
       style="fill:#000000;fill-opacity:1;stroke:none;stroke-width:20;stroke-linecap:round;stroke-linejoin:round;stroke-miterlimit:10"
       d="m 10.046875,16.84375 c -1.6929305,-1.142796 -3.1529454,0.225864 -4.8656775,0.56801 -2.0831197,1.225316 0.5608735,3.461925 1.8655651,4.258157 1.6557252,1.363437 3.7085264,2.07495 5.5782374,3.080086 -1.105346,0.332835 -3.8753112,1.158472 -2.080078,2.496094 1.725962,0.930039 3.499065,1.768808 5.285156,2.576172 -0.493141,1.82962 2.004037,2.792954 3.347923,3.509965 2.029189,0.93749 4.040319,1.9336 6.204812,2.527144 0.25444,2.761752 2.816475,4.551399 5.055916,5.777803 2.299068,1.278734 4.939785,1.750846 7.420649,2.565947 2.093826,0.17284 4.251163,0.284489 6.338685,0.01982 2.180264,-0.19783 3.267474,-1.082244 4.82836,-1.957393 1.560886,-0.875149 3.575442,-2.877405 3.671692,-4.723899 0.373685,-3.420214 0.0281,-6.983188 -1.580919,-10.075427 -0.96697,-2.135187 -3.156363,-3.252936 -4.554977,-5.053814 -1.947197,-1.587565 -3.964912,-3.304229 -6.507205,-3.812207 -3.389386,-1.059703 -6.978347,-0.475555 -10.467071,-0.619691 -3.512004,-0.04676 -7.049464,0.23095 -10.517272,-0.477484 -1.695037,-0.390008 -3.557298,-0.623434 -4.978822,-1.686528 -0.834048,-1.758894 -2.727932,0.295965 -4.044974,1.027245 z m -5.2675781,2.050781 c 0.1429056,-0.0179 -0.1645919,0.109657 0,0 z m 9.9140621,0.984375 c 3.066939,0.679717 6.204151,0.78305 9.332656,0.69475 3.498729,0.07781 7.01588,-0.158106 10.501067,0.140965 2.509314,0.333025 4.953838,1.238398 6.879363,2.914612 1.754269,1.215574 3.010144,2.987086 4.677539,4.312231 1.869857,2.228925 2.730033,5.240124 2.783111,8.119116 -0.190493,1.79773 0.532291,4.790845 -1.556246,5.569429 -2.035512,0.232345 -4.131561,0.198986 -6.168533,-0.03021 -3.137869,-0.952822 -6.451387,-1.636129 -9.112968,-3.674525 -0.706636,-0.527944 -2.176185,-1.637013 -0.399156,-1.393201 1.138589,-0.0086 2.148105,-0.244496 2.936954,-1.096033 l 2.341023,-1.830515 c -2.46895,0.613678 -5.061796,0.50106 -7.511246,-0.161852 -1.352395,-0.288102 -4.672523,-1.509321 -4.512829,-1.768897 1.425115,0.111674 3.003574,0.943929 4.090144,-0.333173 l 2.500337,-1.794663 c -2.947083,-0.299479 -7.345546,-0.670705 -9.261024,-1.941142 1.595515,0.273798 2.901376,0.442868 4.118363,0.27686 l 3.500083,-2.542746 c -4.576748,-0.321203 -9.376756,-0.643473 -13.462856,-2.943429 -1.499609,-0.774241 -3.048612,-1.457119 -4.503907,-2.314453 0.900973,-0.131104 2.048314,0.269902 2.828125,-0.203124 z" />
  </g>
</svg>
