<?xml version="1.0" encoding="UTF-8" standalone="no"?>
<!-- Created with Inkscape (http://www.inkscape.org/) -->

<svg
   width="10.063327mm"
   height="10.096439mm"
   viewBox="0 0 10.063327 10.096439"
   version="1.1"
   id="svg1"
   xml:space="preserve"
   inkscape:version="1.3.1 (9b9bdc1480, 2023-11-25, custom)"
   sodipodi:docname="neptune-explorer.svg"
   xmlns:inkscape="http://www.inkscape.org/namespaces/inkscape"
   xmlns:sodipodi="http://sodipodi.sourceforge.net/DTD/sodipodi-0.dtd"
   xmlns:xlink="http://www.w3.org/1999/xlink"
   xmlns="http://www.w3.org/2000/svg"
   xmlns:svg="http://www.w3.org/2000/svg"><sodipodi:namedview
     id="namedview1"
     pagecolor="#ffffff"
     bordercolor="#666666"
     borderopacity="1.0"
     inkscape:showpageshadow="2"
     inkscape:pageopacity="0.0"
     inkscape:pagecheckerboard="0"
     inkscape:deskcolor="#d1d1d1"
     inkscape:document-units="mm"
     inkscape:zoom="9.4338044"
     inkscape:cx="5.2470878"
     inkscape:cy="41.128688"
     inkscape:window-width="1850"
     inkscape:window-height="1136"
     inkscape:window-x="0"
     inkscape:window-y="0"
     inkscape:window-maximized="1"
     inkscape:current-layer="layer1" /><defs
     id="defs1"><linearGradient
       id="linearGradient5"
       inkscape:collect="always"><stop
         style="stop-color:#0e38a8;stop-opacity:1;"
         offset="0"
         id="stop5" /><stop
         style="stop-color:#00f3ff;stop-opacity:1;"
         offset="1"
         id="stop6" /></linearGradient><linearGradient
       inkscape:collect="always"
       xlink:href="#linearGradient5"
       id="linearGradient6"
       x1="14.506952"
       y1="99.645882"
       x2="73.181564"
       y2="99.645882"
       gradientUnits="userSpaceOnUse"
       gradientTransform="matrix(0.11077556,0,0,0.11077556,64.417732,1.7451893)" /></defs><g
     inkscape:label="Layer 1"
     inkscape:groupmode="layer"
     id="layer1"
     transform="translate(-10.126576,-64.879508)"><path
       id="rect10"
       style="fill:#4b4b4b;fill-opacity:1;stroke:none;stroke-width:0.110776;stroke-linecap:round;stroke-linejoin:round;stroke-dasharray:none;stroke-opacity:1"
       d="m 17.691731,71.556866 c -0.08113,-0.07634 -0.207842,-0.0725 -0.284186,0.0086 l -0.05167,0.0549 -0.330161,-0.310719 c -0.08113,-0.07634 -0.207922,-0.0725 -0.28427,0.0086 l -0.312366,0.331867 c -0.07634,0.08113 -0.07247,0.20788 0.0087,0.284228 l 0.330161,0.310717 -0.05825,0.06191 c -0.07634,0.08113 -0.07254,0.207882 0.0086,0.284228 l 1.813973,1.707146 c 0.08113,0.07634 0.207882,0.07247 0.284227,-0.0087 l 0.6979,-0.741572 c 0.07634,-0.08113 0.0725,-0.207842 -0.0086,-0.28419 z" /><circle
       style="fill:#4b4b4b;fill-opacity:1;stroke:none;stroke-width:0.110776;stroke-linecap:round;stroke-linejoin:round;stroke-dasharray:none;stroke-opacity:1"
       id="path7"
       cx="14.236404"
       cy="68.990685"
       r="3.7009039" /><circle
       style="fill:url(#linearGradient6);stroke:none;stroke-width:0.110776;stroke-linecap:round;stroke-linejoin:round;stroke-dasharray:none;stroke-opacity:1"
       id="path5"
       cx="69.274605"
       cy="12.783518"
       r="3.2498562"
       transform="rotate(67.885123)" /><g
       id="g9"
       transform="matrix(0.11077556,0,0,0.11077556,9.3364717,57.876819)"
       style="fill:#ffffff;fill-opacity:1"><path
         id="path6"
         style="fill:#ffffff;fill-opacity:1;stroke:none;stroke-width:1;stroke-linecap:round;stroke-linejoin:round;stroke-dasharray:none;stroke-opacity:1"
         d="m 39.353516,84.876953 c -4.556254,0.08073 -8.513055,3.648609 -9.821372,7.892549 -1.169532,3.632013 -0.581884,7.494328 -0.70845,11.237518 0.01104,3.43 0.03305,6.85994 0.05912,10.28986 1.130962,0.42408 2.430316,0.10011 3.628907,0.19335 0.763223,-0.21217 0.295718,-1.1293 0.398905,-1.68398 0.0658,-5.60368 -0.08079,-11.21422 0.163471,-16.812983 0.368773,-3.680317 3.727957,-7.172408 7.591351,-6.677088 3.05358,0.284184 5.683614,2.826525 6.071705,5.8595 0.387062,2.409666 0.1017,4.881641 0.208254,7.317251 0.02022,0.6557 -0.09911,1.37632 0.115142,1.98754 1.082914,0.10711 2.223083,0.10066 3.279297,0.0137 0.306213,-1.52956 0.0412,-3.10094 0.113081,-4.648763 0.01102,-3.218987 0.122949,-6.652872 -1.55861,-9.532177 -1.849676,-3.382995 -5.666557,-5.635616 -9.540799,-5.436247 z" /><path
         id="path6-9"
         style="fill:#ffffff;fill-opacity:1;stroke:none;stroke-width:1;stroke-linecap:round;stroke-linejoin:round;stroke-dasharray:none;stroke-opacity:1"
         d="m 55.914062,86.142578 c -0.667694,0.07939 -0.25287,0.88883 -0.364208,1.307421 -0.03334,5.733231 0.07814,11.472968 -0.159106,17.201261 -0.369544,3.67951 -3.730866,7.16542 -7.591341,6.67311 -3.044672,-0.28655 -5.673687,-2.8147 -6.067282,-5.83999 -0.385734,-2.42534 -0.112487,-4.91296 -0.208249,-7.364392 -0.01929,-0.648533 0.09509,-1.36125 -0.11372,-1.965691 -1.066442,-0.138913 -2.143571,-0.03605 -3.214844,-0.06836 -0.428311,1.189073 -0.08711,2.544401 -0.191212,3.80155 0.05227,3.474553 -0.282053,7.205883 1.519674,10.344173 2.108254,4.0404 7.051458,6.39539 11.505523,5.28396 3.919437,-0.92426 6.989338,-4.23755 8.030244,-8.07149 0.959969,-3.25066 0.492736,-6.6686 0.594756,-10.002725 -0.0089,-3.697978 -0.03902,-7.395847 -0.0625,-11.09375 -1.077573,-0.42776 -2.331779,-0.08582 -3.480469,-0.214844 l -0.09988,0.0049 z" /></g></g></svg>
