<svg width="24" height="24" viewBox="0 0 68 68" fill="none" xmlns="http://www.w3.org/2000/svg">
    <path opacity="0.9"
          d="M34 68C52.7777 68 68 52.7777 68 34C68 15.2223 52.7777 0 34 0C15.2223 0 0 15.2223 0 34C0 52.7777 15.2223 68 34 68Z"
          fill="#57A9DA"></path>
    <path d="M14.1505 33.7045C14.1505 33.7045 31.1504 26.7277 37.0463 24.271C39.3065 23.2884 46.9712 20.1438 46.9712 20.1438C46.9712 20.1438 50.5088 18.7682 50.2139 22.1092C50.1156 23.4849 49.3295 28.2999 48.5435 33.508C47.3642 40.878 46.0868 48.9357 46.0868 48.9357C46.0868 48.9357 45.8902 51.1959 44.2197 51.5889C42.5493 51.982 39.7977 50.2133 39.3065 49.8201C38.9133 49.5254 31.9365 45.1034 29.3816 42.9415C28.6937 42.352 27.9077 41.1728 29.4798 39.7971C33.0175 36.5543 37.2428 32.5254 39.7977 29.9705C40.977 28.7913 42.1561 26.0398 37.2428 29.3808C30.266 34.1959 23.3874 38.7161 23.3874 38.7161C23.3874 38.7161 21.8152 39.6987 18.8672 38.8143C15.9192 37.93 12.4799 36.7508 12.4799 36.7508C12.4799 36.7508 10.1216 35.2768 14.1505 33.7045Z"
          fill="white"></path>
</svg>